<?xml version="1.0" standalone="no"?>
<!DOCTYPE svg PUBLIC "-//W3C//DTD SVG 20010904//EN"
 "http://www.w3.org/TR/2001/REC-SVG-20010904/DTD/svg10.dtd">
<svg version="1.0" xmlns="http://www.w3.org/2000/svg"
 width="756.000000pt" height="756.000000pt" viewBox="0 0 756.000000 756.000000"
 preserveAspectRatio="xMidYMid meet">
<metadata>
Created by potrace 1.11, written by Peter Selinger 2001-2013
</metadata>
<g transform="translate(0.000000,756.000000) scale(0.100000,-0.100000)"
fill="#000000" stroke="none">
<path d="M950 3780 l0 -3780 2830 0 2830 0 0 3780 0 3780 -2830 0 -2830 0 0
-3780z m2541 494 c2 -348 -2 -664 -8 -664 -5 0 -7 165 -6 367 1 417 1 408 8
401 3 -3 6 -50 6 -104z m-1 -756 c0 -46 -4 -78 -8 -71 -4 6 -6 42 -5 80 1 76
1 73 8 73 3 0 5 -37 5 -82z m0 -125 c0 -20 -3 -33 -7 -29 -10 9 -11 66 -1 66
4 0 8 -16 8 -37z m0 -73 c0 -16 -3 -30 -7 -30 -5 0 -8 14 -8 30 0 17 3 30 8
30 4 0 7 -13 7 -30z m0 -55 c0 -8 -4 -15 -8 -15 -5 0 -9 7 -9 15 0 8 4 15 9
15 4 0 8 -7 8 -15z m0 -40 c0 -8 -4 -15 -10 -15 -5 0 -7 7 -4 15 4 8 8 15 10
15 2 0 4 -7 4 -15z m0 -40 c0 -8 -4 -15 -10 -15 -5 0 -7 7 -4 15 4 8 8 15 10
15 2 0 4 -7 4 -15z m-3 -60 c0 -8 -4 -15 -9 -15 -10 0 -11 14 -1 23 9 10 10 9
10 -8z m0 -60 c1 -19 -1 -35 -5 -35 -6 0 -8 55 -3 68 4 8 6 -2 8 -33z m-1 -69
c0 -14 -3 -23 -7 -20 -6 3 -6 22 0 42 3 10 7 -2 7 -22z m4 -76 c0 -5 -4 -10
-10 -10 -5 0 -10 5 -10 10 0 6 5 10 10 10 6 0 10 -4 10 -10z m-3 -85 c0 -8 -4
-12 -9 -9 -5 3 -6 10 -3 15 9 13 12 11 12 -6z"/>
</g>
</svg>
